<svg width="49" height="47" viewBox="0 0 49 47" fill="none" xmlns="http://www.w3.org/2000/svg">
<g clip-path="url(#clip0_1351_4740)">
<path fill-rule="evenodd" clip-rule="evenodd" d="M37.2683 44.6089C37.9123 45.0554 38.7423 45.167 39.4823 44.8929C40.2223 44.6168 40.7663 43.9979 40.9303 43.2479C42.6683 35.25 46.8843 15.0068 48.4663 7.73155C48.5863 7.18321 48.3863 6.61334 47.9463 6.24713C47.5063 5.88092 46.8963 5.77517 46.3523 5.97296C37.9663 9.0123 12.1403 18.5004 1.58431 22.325C0.914307 22.5679 0.478307 23.1985 0.500307 23.8898C0.524307 24.583 1.00031 25.1842 1.68631 25.3859C6.42031 26.7724 12.6343 28.7014 12.6343 28.7014C12.6343 28.7014 15.5383 37.2887 17.0523 41.6558C17.2423 42.2041 17.6803 42.6349 18.2583 42.7838C18.8343 42.9306 19.4503 42.7759 19.8803 42.3784C22.3123 40.1302 26.0723 36.6542 26.0723 36.6542C26.0723 36.6542 33.2163 41.783 37.2683 44.6089ZM15.2483 27.6165L18.6063 38.4617L19.3523 31.5938C19.3523 31.5938 32.3263 20.1356 39.7223 13.6046C39.9383 13.4127 39.9683 13.0915 39.7883 12.8663C39.6103 12.6411 39.2823 12.5882 39.0363 12.741C30.4643 18.1009 15.2483 27.6165 15.2483 27.6165Z" fill="white"/>
</g>
<defs>
<clipPath id="clip0_1351_4740">
<rect width="48" height="47" fill="white" transform="translate(0.5)"/>
</clipPath>
</defs>
</svg>
