<svg width="49" height="41" viewBox="0 0 49 41" fill="none" xmlns="http://www.w3.org/2000/svg">
<path fill-rule="evenodd" clip-rule="evenodd" d="M36.8427 39.6092C37.4871 40.0557 38.3177 40.1673 39.0582 39.8931C39.7987 39.617 40.3431 38.9982 40.5072 38.2481C42.2464 30.2503 46.4653 10.007 48.0484 2.73179C48.1685 2.18346 47.9684 1.61358 47.5281 1.24737C47.0878 0.881165 46.4774 0.775415 45.933 0.973207C37.5412 4.01254 11.6972 13.5007 1.13389 17.3253C0.463424 17.5681 0.0271208 18.1987 0.0491361 18.89C0.0731528 19.5832 0.549483 20.1845 1.23596 20.3862C5.97325 21.7727 12.1916 23.7016 12.1916 23.7016C12.1916 23.7016 15.0976 32.2889 16.6126 36.656C16.8028 37.2043 17.2411 37.6352 17.8195 37.784C18.3959 37.9309 19.0123 37.7762 19.4426 37.3786C21.8763 35.1305 25.6389 31.6544 25.6389 31.6544C25.6389 31.6544 32.7879 36.7833 36.8427 39.6092ZM14.8074 22.6167L18.1677 33.462L18.9142 26.5941C18.9142 26.5941 31.8972 15.1359 39.2984 8.60483C39.5145 8.41292 39.5445 8.09175 39.3644 7.86654C39.1863 7.64133 38.8581 7.58846 38.6119 7.74121C30.0339 13.1012 14.8074 22.6167 14.8074 22.6167Z" fill="#CCCCCC"/>
</svg>
