<svg width="49" height="29" viewBox="0 0 49 29" fill="none" xmlns="http://www.w3.org/2000/svg">
<path d="M26.3423 28.1969C27.5611 28.1969 28.0595 27.4018 28.0455 26.405C27.9834 22.6509 29.4745 20.6299 32.1663 23.2639C35.1444 26.1779 35.7608 28.1969 39.3773 28.1969H45.7818C47.3989 28.1969 48.0353 27.6877 48.0353 26.8887C48.0353 25.1987 45.1914 22.2162 42.7817 20.0267C39.4073 16.9619 39.2492 16.8895 42.1553 13.2C45.7598 8.61945 50.475 2.75033 46.3041 2.75033H38.3366C36.7915 2.75033 36.6795 3.6022 36.1291 4.8712C34.1377 9.46741 30.3531 15.4207 28.9161 14.5101C27.413 13.5603 28.1015 9.79837 28.2156 4.20733C28.2456 2.73074 28.2376 1.71828 25.932 1.19345C24.6731 0.909492 23.4483 0.791992 22.3115 0.791992C17.7623 0.791992 14.6241 2.65828 16.4074 2.98337C19.5516 3.55716 19.2494 10.2135 18.5168 13.0884C17.24 18.0939 12.4406 9.1247 10.4412 4.65774C9.95891 3.58458 9.81081 2.75033 8.08961 2.75033H1.57509C0.59041 2.75033 0 3.06366 0 3.76082C0 4.93974 5.92411 16.9208 11.58 22.8937C17.0959 28.7198 22.5476 28.1969 26.3423 28.1969Z" fill="#CCCCCC"/>
</svg>
