<svg width="49" height="47" viewBox="0 0 49 47" fill="none" xmlns="http://www.w3.org/2000/svg">
<g clip-path="url(#clip0_1351_4738)">
<path d="M26.824 37.1965C28.042 37.1965 28.54 36.4015 28.526 35.4047C28.464 31.6505 29.954 29.6295 32.644 32.2635C35.62 35.1775 36.236 37.1965 39.85 37.1965H46.25C47.866 37.1965 48.502 36.6874 48.502 35.8884C48.502 34.1983 45.66 31.2158 43.252 29.0264C39.88 25.9616 39.722 25.8891 42.626 22.1996C46.228 17.6191 50.94 11.75 46.772 11.75H38.81C37.266 11.75 37.154 12.6018 36.604 13.8708C34.614 18.467 30.832 24.4204 29.396 23.5098C27.894 22.56 28.582 18.798 28.696 13.207C28.726 11.7304 28.718 10.7179 26.414 10.1931C25.156 9.90913 23.932 9.79163 22.796 9.79163C18.25 9.79163 15.114 11.6579 16.896 11.983C20.038 12.5568 19.736 19.2132 19.004 22.088C17.728 27.0935 12.932 18.1243 10.934 13.6574C10.452 12.5842 10.304 11.75 8.584 11.75H2.074C1.09 11.75 0.5 12.0633 0.5 12.7605C0.5 13.9394 6.42 25.9205 12.072 31.8934C17.584 37.7194 23.032 37.1965 26.824 37.1965Z" fill="white"/>
</g>
<defs>
<clipPath id="clip0_1351_4738">
<rect width="48" height="47" fill="white" transform="translate(0.5)"/>
</clipPath>
</defs>
</svg>
