<svg width="39" height="39" viewBox="0 0 39 39" fill="none" xmlns="http://www.w3.org/2000/svg">
<path d="M32.939 6.04167C29.3641 2.47917 24.5976 0.5 19.5662 0.5C9.10627 0.5 0.632402 8.94444 0.632402 19.3681C0.632402 22.6667 1.55923 25.9653 3.14808 28.7361L0.5 38.5L10.5627 35.8611C13.3432 37.3125 16.3885 38.1042 19.5662 38.1042C30.0261 38.1042 38.5 29.6597 38.5 19.2361C38.3676 14.3542 36.5139 9.60417 32.939 6.04167ZM28.7021 26.0972C28.3049 27.1528 26.4512 28.2083 25.5244 28.3403C24.73 28.4722 23.6707 28.4722 22.6115 28.2083C21.9495 27.9444 21.0226 27.6806 19.9634 27.1528C15.1969 25.1736 12.1516 20.4236 11.8868 20.0278C11.622 19.7639 9.9007 17.5208 9.9007 15.1458C9.9007 12.7708 11.0923 11.7153 11.4895 11.1875C11.8868 10.6597 12.4164 10.6597 12.8136 10.6597C13.0784 10.6597 13.4756 10.6597 13.7404 10.6597C14.0052 10.6597 14.4024 10.5278 14.7996 11.4514C15.1969 12.375 16.1237 14.75 16.2561 14.8819C16.3885 15.1458 16.3885 15.4097 16.2561 15.6736C16.1237 15.9375 15.9913 16.2014 15.7265 16.4653C15.4617 16.7292 15.1969 17.125 15.0645 17.2569C14.7996 17.5208 14.5348 17.7847 14.7996 18.1806C15.0645 18.7083 15.9913 20.1597 17.4477 21.4792C19.3014 23.0625 20.7578 23.5903 21.2875 23.8542C21.8171 24.1181 22.0819 23.9861 22.3467 23.7222C22.6115 23.4583 23.5383 22.4028 23.8031 21.875C24.0679 21.3472 24.4652 21.4792 24.8624 21.6111C25.2596 21.7431 27.6429 22.9306 28.0401 23.1944C28.5697 23.4583 28.8345 23.5903 28.9669 23.7222C29.0993 24.1181 29.0993 25.0417 28.7021 26.0972Z" fill="white"/>
</svg>
